<svg width="38" height="38" viewBox="0 0 38 38" fill="none" xmlns="http://www.w3.org/2000/svg">
<path d="M35.3876 15.675C36.2782 15.6157 36.9907 14.9032 36.9907 13.9532V10.6875C36.9907 8.6688 35.3876 7.06567 33.3688 7.06567H4.69072C2.67197 7.06567 1.06885 8.6688 1.06885 10.6875V14.0125C1.06885 14.9032 1.78135 15.675 2.67197 15.7344C4.33447 15.9125 5.58135 17.3375 5.58135 19.0594C5.58135 20.7813 4.33447 22.2063 2.67197 22.325C1.78135 22.3844 1.06885 23.1563 1.06885 24.0469V27.3125C1.06885 29.3313 2.67197 30.9344 4.69072 30.9344H33.3688C35.3876 30.9344 36.9907 29.3313 36.9907 27.3125V24.0469C36.9907 23.1563 36.2782 22.3844 35.3876 22.325C33.7251 22.1469 32.4782 20.7219 32.4782 19.0001C32.4782 17.2188 33.7251 15.7938 35.3876 15.675ZM34.3188 24.8188V27.3125C34.3188 27.8469 33.9032 28.2625 33.3688 28.2625H18.822V25.0563C18.822 24.3438 18.2282 23.6907 17.4563 23.6907C16.6845 23.6907 16.0907 24.2844 16.0907 25.0563V28.2625H4.69072C4.15635 28.2625 3.74072 27.8469 3.74072 27.3125V24.9376C6.35322 24.3438 8.25322 21.9688 8.25322 19.1188C8.25322 16.3282 6.35322 13.8938 3.74072 13.2407V10.6875C3.74072 10.1532 4.15635 9.73755 4.69072 9.73755H16.1501V12.9438C16.1501 13.6563 16.7438 14.3094 17.5157 14.3094C18.2876 14.3094 18.8813 13.7157 18.8813 12.9438V9.73755H33.3688C33.9032 9.73755 34.3188 10.1532 34.3188 10.6875V13.1219C31.7063 13.775 29.8063 16.15 29.8063 19.0001C29.8063 21.7907 31.7063 24.1657 34.3188 24.8188Z" fill="#111928"/>
<path d="M17.5158 16.15C16.8033 16.15 16.1501 16.7438 16.1501 17.5156V20.5438C16.1501 21.2563 16.7439 21.9094 17.5158 21.9094C18.2876 21.9094 18.8814 21.3156 18.8814 20.5438V17.5156C18.822 16.7438 18.2283 16.15 17.5158 16.15Z" fill="#111928"/>
</svg>
