<svg width="37.5" height="25" viewBox="0 0 24 16" fill="none" xmlns="http://www.w3.org/2000/svg">
<path d="M22.35 5.90002C22.9125 5.86252 23.3625 5.41252 23.3625 4.81252V2.75002C23.3625 1.47502 22.35 0.462524 21.0751 0.462524H2.96255C1.68755 0.462524 0.675049 1.47502 0.675049 2.75002V4.85002C0.675049 5.41252 1.12505 5.90002 1.68755 5.93752C2.73755 6.05002 3.52505 6.95002 3.52505 8.03752C3.52505 9.12502 2.73755 10.025 1.68755 10.1C1.12505 10.1375 0.675049 10.625 0.675049 11.1875V13.25C0.675049 14.525 1.68755 15.5375 2.96255 15.5375H21.0751C22.35 15.5375 23.3625 14.525 23.3625 13.25V11.1875C23.3625 10.625 22.9125 10.1375 22.35 10.1C21.3 9.98752 20.5126 9.08752 20.5126 8.00002C20.5126 6.87502 21.3 5.97502 22.35 5.90002ZM21.675 11.675V13.25C21.675 13.5875 21.4125 13.85 21.0751 13.85H11.8875V11.825C11.8875 11.375 11.5125 10.9625 11.025 10.9625C10.5375 10.9625 10.1625 11.3375 10.1625 11.825V13.85H2.96255C2.62505 13.85 2.36255 13.5875 2.36255 13.25V11.75C4.01255 11.375 5.21255 9.87502 5.21255 8.07502C5.21255 6.31252 4.01255 4.77502 2.36255 4.36252V2.75002C2.36255 2.41252 2.62505 2.15002 2.96255 2.15002H10.2V4.17502C10.2 4.62502 10.575 5.03752 11.0625 5.03752C11.55 5.03752 11.925 4.66252 11.925 4.17502V2.15002H21.0751C21.4125 2.15002 21.675 2.41252 21.675 2.75002V4.28752C20.025 4.70002 18.8251 6.20002 18.8251 8.00002C18.8251 9.76252 20.025 11.2625 21.675 11.675Z" fill="white"/>
<path d="M11.0625 6.20007C10.6125 6.20007 10.2 6.57507 10.2 7.06257V8.97507C10.2 9.42507 10.575 9.83757 11.0625 9.83757C11.55 9.83757 11.925 9.46257 11.925 8.97507V7.06257C11.8875 6.57507 11.5125 6.20007 11.0625 6.20007Z" fill="white"/>
</svg>
